D:\school\WTK\thesis\model\3dpredictsim\Results\Batchsim_tmt_linear_v2\Pog_s1_tmt_aCst_d02_k800_ig24_act_GRF.mot
nRows=10
nColumns=19

name D:\school\WTK\thesis\model\3dpredictsim\Results\Batchsim_tmt_linear_v2\Pog_s1_tmt_aCst_d02_k800_ig24_act_GRF.mot
datacolumns 19
datarows 10
range 0.6193196250 0.7307971575
endheader
time 	ground_force_vx	ground_force_vy	ground_force_vz	ground_force_px	ground_force_py	ground_force_pz	1_ground_force_vx	1_ground_force_vy	1_ground_force_vz	1_ground_force_px	1_ground_force_py	1_ground_force_pz	ground_torque_x	ground_torque_y	ground_torque_z	1_ground_torque_x	1_ground_torque_y	1_ground_torque_z
        0.6193196250	       50.5797765359	      286.3165320092	        5.5086191449	        0.4179934110	        0.0000000000	        0.0507988000	      -56.1404375817	       44.3710098159	       -2.3967129260	        1.1627632842	        0.0000000000	       -0.0294718724	        0.0000000000	        0.0000000000	        0.0000000000	        0.0000000000	        0.0000000000	        0.0000000000	
        0.6317060175	       30.2338029472	      235.6367319488	        7.1579518909	        0.4315645837	        0.0000000000	        0.0494578818	     -129.7654826425	      115.4322849464	       -7.2900867797	        1.1590926489	        0.0000000000	       -0.0332568336	        0.0000000000	        0.0000000000	        0.0000000000	        0.0000000000	        0.0000000000	        0.0000000000	
        0.6440924100	       33.3563591457	      197.6628833183	        9.8770619872	        0.4321418507	        0.0000000000	        0.0496514776	     -225.6847493574	      311.4934020327	      -11.2774081354	        1.1233461773	        0.0000000000	       -0.0472695117	        0.0000000000	        0.0000000000	        0.0000000000	        0.0000000000	        0.0000000000	        0.0000000000	
        0.6564788025	       29.9243589019	      151.5204837885	       14.3577244591	        0.4325991738	        0.0000000000	        0.0500385665	     -199.1467218597	      557.3979706375	       15.2556869214	        1.0921735599	        0.0000000000	       -0.0586274805	        0.0000000000	        0.0000000000	        0.0000000000	        0.0000000000	        0.0000000000	        0.0000000000	
        0.6688651950	       17.6617953766	       95.0650076296	       14.9086243787	        0.4327386058	        0.0000000000	        0.0504210400	     -200.4216475529	      710.4368838414	       16.7213726293	        1.0824938309	        0.0000000000	       -0.0620087210	        0.0000000000	        0.0000000000	        0.0000000000	        0.0000000000	        0.0000000000	        0.0000000000	
        0.6812515875	       -0.7180664237	       35.6968477258	        6.7548736576	        0.4315492731	        0.0000000000	        0.0502560509	     -198.9268498494	      838.9610572983	       23.1443638331	        1.0761319038	        0.0000000000	       -0.0642314720	        0.0000000000	        0.0000000000	        0.0000000000	        0.0000000000	        0.0000000000	        0.0000000000	
        0.6936379800	       -2.1587519558	        2.0749961231	       -0.0052170094	        0.0000000000	        0.0000000000	        0.0000000000	     -196.1881171602	      910.0337344571	       26.4012987880	        1.0724586317	        0.0000000000	       -0.0655126631	        0.0000000000	        0.0000000000	        0.0000000000	        0.0000000000	        0.0000000000	        0.0000000000	
        0.7060243725	       -8.8094102436	        6.7263360066	       -0.6784606834	        0.0000000000	        0.0000000000	        0.0000000000	     -182.2838974367	      901.1288956739	       23.5116684981	        1.0701684662	        0.0000000000	       -0.0662074285	        0.0000000000	        0.0000000000	        0.0000000000	        0.0000000000	        0.0000000000	        0.0000000000	
        0.7184107650	       -9.2544296650	        6.0075026663	       -0.7465586124	        0.0000000000	        0.0000000000	        0.0000000000	     -162.3706351686	      854.8407087104	       21.4221792543	        1.0691178886	        0.0000000000	       -0.0665649861	        0.0000000000	        0.0000000000	        0.0000000000	        0.0000000000	        0.0000000000	        0.0000000000	
        0.7307971575	       -8.2756677633	        4.7616851145	       -0.6748865625	        0.0000000000	        0.0000000000	        0.0000000000	     -142.8280956232	      795.4568944718	       19.3080609657	        1.0694738928	        0.0000000000	       -0.0668045013	        0.0000000000	        0.0000000000	        0.0000000000	        0.0000000000	        0.0000000000	        0.0000000000	
